<svg xmlns="http://www.w3.org/2000/svg" viewBox="0 0 72 72"><title>gitArtboard 1</title><g id="Logo"><path d="M65,49H63V48a1,1,0,0,0-1-1H58a1,1,0,0,0-1,1v1H55V32a3,3,0,0,0-.75-2,6,6,0,1,0-6.5,0A3,3,0,0,0,47,32V49H37a3,3,0,0,0-3,3v2a3,3,0,0,0,3,3H65a3,3,0,0,0,3-3V52A3,3,0,0,0,65,49ZM51,21a4,4,0,1,1-4,4A4,4,0,0,1,51,21ZM49,32a1,1,0,0,1,1-1h2a1,1,0,0,1,1,1V49H49ZM66,54a1,1,0,0,1-1,1H37a1,1,0,0,1-1-1V52a1,1,0,0,1,1-1H65a1,1,0,0,1,1,1Z"/><path d="M11,42H45V40H11a1,1,0,0,1-1-1V19a1,1,0,0,1,1-1H47.14A7.87,7.87,0,0,1,51,17h.23A3,3,0,0,0,49,16H11a3,3,0,0,0-3,3V39A3,3,0,0,0,11,42Z"/><path d="M6,48V46a1,1,0,0,1,1-1H22.27A2,2,0,0,0,24,46H36a2,2,0,0,0,1.73-1H45V43H36v1H24V43H7a3,3,0,0,0-3,3v2a3,3,0,0,0,3,3H32.1A5,5,0,0,1,33,49H7A1,1,0,0,1,6,48Z"/><path d="M13,20a1,1,0,0,0-1,1v6a1,1,0,0,0,2,0V22h5a1,1,0,0,0,0-2Z"/></g></svg>